<?xml version="1.0" encoding="UTF-8" standalone="no"?>
<!-- Created with Inkscape (http://www.inkscape.org/) -->

<svg
   width="17.06109mm"
   height="17.06109mm"
   viewBox="0 0 17.06109 17.06109"
   version="1.1"
   id="svg1"
   inkscape:version="1.4 (86a8ad7, 2024-10-11)"
   sodipodi:docname="VariableSymbol.svg"
   xmlns:inkscape="http://www.inkscape.org/namespaces/inkscape"
   xmlns:sodipodi="http://sodipodi.sourceforge.net/DTD/sodipodi-0.dtd"
   xmlns="http://www.w3.org/2000/svg"
   xmlns:svg="http://www.w3.org/2000/svg">
  <sodipodi:namedview
     id="namedview1"
     pagecolor="#808080"
     bordercolor="#000000"
     borderopacity="0.25"
     inkscape:showpageshadow="2"
     inkscape:pageopacity="0.0"
     inkscape:pagecheckerboard="0"
     inkscape:deskcolor="#d1d1d1"
     inkscape:document-units="mm"
     inkscape:export-bgcolor="#80808000"
     inkscape:zoom="7.7909517"
     inkscape:cx="44.282138"
     inkscape:cy="30.612435"
     inkscape:window-width="1920"
     inkscape:window-height="991"
     inkscape:window-x="-9"
     inkscape:window-y="-9"
     inkscape:window-maximized="1"
     inkscape:current-layer="layer1" />
  <defs
     id="defs1" />
  <g
     inkscape:label="Capa 1"
     inkscape:groupmode="layer"
     id="layer1"
     transform="translate(-39.403259,-96.272499)">
    <text
       xml:space="preserve"
       style="font-style:normal;font-variant:normal;font-weight:normal;font-stretch:normal;font-size:11.2889px;font-family:'Franklin Gothic Medium';-inkscape-font-specification:'Franklin Gothic Medium, ';text-align:start;writing-mode:lr-tb;direction:ltr;text-anchor:start;fill:none;stroke:#ffffff;stroke-width:1;stroke-dasharray:none;stroke-opacity:1"
       x="24.451441"
       y="108.87683"
       id="text1"><tspan
         sodipodi:role="line"
         id="tspan1"
         style="font-style:normal;font-variant:normal;font-weight:normal;font-stretch:normal;font-family:'Franklin Gothic Medium';-inkscape-font-specification:'Franklin Gothic Medium, ';stroke-width:1"
         x="24.451441"
         y="108.87683" /></text>
    <rect
       style="fill:none;stroke:#ffffff;stroke-width:1;stroke-linecap:round;stroke-linejoin:round;stroke-miterlimit:1;stroke-dasharray:none;stroke-opacity:1"
       id="rect2"
       width="14.977"
       height="15.010468"
       x="40.445549"
       y="97.297813"
       ry="2.4013584" />
    <path
       style="font-size:17.1446px;font-family:'Cambria Math';-inkscape-font-specification:'Cambria Math';fill:#ffffff;stroke:#ffffff;stroke-linecap:round;stroke-linejoin:round;stroke-miterlimit:1"
       d="m 48.143088,103.97428 1.08828,-1.38128 q 0.175799,-0.22602 0.284627,-0.43531 0.108828,-0.21765 0.108828,-0.44368 0,-0.19254 -0.142313,-0.31811 -0.142314,-0.12557 -0.443684,-0.18417 v -0.4102 h 2.737443 v 0.4102 q -0.318112,0.0921 -0.652968,0.35996 -0.326484,0.26789 -0.803653,0.86226 l -1.732877,2.12633 1.908676,2.57002 q 0.410198,0.55251 0.736682,0.84551 0.326484,0.29299 0.652968,0.41857 v 0.41019 H 48.5198 v -0.41019 q 0.694825,-0.0837 0.694825,-0.51903 0,-0.1758 -0.0586,-0.33486 -0.0586,-0.15905 -0.217656,-0.36834 l -1.213851,-1.69102 -1.289193,1.67428 q -0.142314,0.18417 -0.226028,0.34323 -0.07534,0.15068 -0.07534,0.34322 0,0.22603 0.150685,0.37672 0.159056,0.14231 0.493912,0.1758 v 0.41019 h -2.796044 v -0.41019 q 0.276256,-0.10046 0.493912,-0.25115 0.226028,-0.15068 0.452055,-0.38508 0.234399,-0.24277 0.611111,-0.7032 l 1.741249,-2.15981 -1.783106,-2.44445 q -0.368341,-0.50228 -0.585997,-0.72831 -0.217656,-0.22603 -0.401826,-0.34323 -0.184171,-0.1172 -0.368341,-0.16742 v -0.4102 h 3.281583 v 0.4102 q -0.661339,0.10045 -0.661339,0.51902 0,0.19254 0.08371,0.38509 0.09208,0.19254 0.276255,0.42694 z"
       id="text2"
       aria-label="x" />
  </g>
</svg>
